<svg width="76" height="83" viewBox="0 0 76 83" fill="none" xmlns="http://www.w3.org/2000/svg">
<path d="M69.2429 62.5387C66.7879 76.4323 48.6605 83 35.1149 83C13.8005 82.9979 0.174927 73.8383 0.174927 62.5387C0.174927 59.1971 -1.10201 53.4498 3.24419 53.2571C9.00196 53 21.2075 53 35.1149 53C49.0223 53 61.596 53 67.1518 53.4434C71.376 53.7819 69.8109 59.3213 69.2429 62.5366V62.5387Z" fill="#48B2EC"/>
<path d="M2 54.2721C2 54.2721 5.99775 53.6599 10 54.2721" stroke="black" stroke-width="3" stroke-linecap="round" stroke-linejoin="round"/>
<path d="M38 54.1533C38 54.1533 52.2418 53.2107 68 56" stroke="black" stroke-width="3" stroke-linecap="round" stroke-linejoin="round"/>
<path d="M70 26.0623L60.0016 43.077C58.337 45.9082 54.712 46.8441 51.9045 45.1679C49.0928 43.4939 48.1612 39.8395 49.8258 37.0147L59.8263 20L70 26.0623Z" fill="#48B2EC" stroke="black" stroke-width="3" stroke-miterlimit="10"/>
<path d="M42.9958 37.9294C42.8706 34.4739 41.5457 32.4875 39.5217 31.0568C37.479 29.6537 34.5933 28.9916 31.7348 29.0001C29.0807 28.9916 26.4746 29.5643 24.7094 30.3712L24.0042 30.6948L23.2968 30.3712C21.8843 29.7155 19.9104 29.2343 17.8155 29.0618L14.2037 29.1108C12.0734 29.3556 10.0369 29.9901 8.4866 31.0589C6.45849 32.4854 5.13562 34.476 5.01043 37.923C5.00417 38.1998 5 38.4531 5 38.6873C5.03547 43.5629 6.13299 45.3194 7.46211 47.7806C8.83088 50.1971 10.4 53.2906 10.3541 59.0114C10.3541 65.6562 11.4578 69.5566 12.6576 71.6176C13.8803 73.6849 14.2893 74 15.6226 74C17.0226 74 17.513 72.5501 17.5735 71.7858C17.8447 68.9733 17.3732 64.5746 18.7357 59.8843C19.1259 58.5856 19.6016 56.9632 20.553 55.4963C21.8383 53.5184 25.3103 51.9706 27.4553 55.4963C28.3609 56.9952 28.8825 58.5834 29.2748 59.8843C30.3139 63.4569 30.6185 67.1934 30.3744 70.0442C30.0301 74.0107 32.3107 73.9979 32.3837 73.9979C33.5939 73.9979 34.1218 73.6828 35.3382 71.6155C36.5463 69.5545 37.6501 65.6541 37.6439 59.0093C37.6063 53.2757 39.1775 50.1949 40.5462 47.7742C41.8795 45.3151 42.9583 43.5586 43 38.6852C43 38.4446 42.9979 38.1913 42.9917 37.923L42.9958 37.9294Z" fill="#E9E9EA" stroke="black" stroke-width="3" stroke-linecap="round" stroke-linejoin="round"/>
<path d="M24 31L29 34" stroke="black" stroke-width="3" stroke-linecap="round" stroke-linejoin="round"/>
<path d="M62 13L75 21" stroke="black" stroke-width="3" stroke-miterlimit="10"/>
<path d="M67 30L63 28" stroke="black" stroke-width="3" stroke-miterlimit="10"/>
<path d="M64 35L60 33" stroke="black" stroke-width="3" stroke-miterlimit="10"/>
<path d="M61 41L57 39" stroke="black" stroke-width="3" stroke-miterlimit="10"/>
<path d="M52 45L42 61" stroke="black" stroke-width="3" stroke-miterlimit="10" stroke-linecap="round"/>
<path d="M58 19L73 28" stroke="black" stroke-width="3" stroke-miterlimit="10"/>
<path d="M71 17.5472L66.7603 15L63 21.4506L67.2335 24L71 17.5472Z" stroke="black" stroke-width="3" stroke-miterlimit="10"/>
<path d="M21 14L29 20" stroke="#BDC0C4" stroke-width="3" stroke-linecap="round" stroke-linejoin="round"/>
<path d="M38 18L35 2" stroke="#BDC0C4" stroke-width="3" stroke-linecap="round" stroke-linejoin="round"/>
<path d="M47 16L53 4" stroke="#BDC0C4" stroke-width="3" stroke-linecap="round" stroke-linejoin="round"/>
<path d="M16 36C12.9437 36.516 11.0651 39.4989 12.4787 43" stroke="white" stroke-width="3" stroke-linecap="round" stroke-linejoin="round"/>
</svg>
