<svg width="104" height="85" viewBox="0 0 104 85" fill="none" xmlns="http://www.w3.org/2000/svg">
<path d="M18.8808 37.0464C20.8483 37.0464 22.8157 37.5473 24.5678 38.4924C24.8226 38.6271 25.0748 38.7752 25.3243 38.9367C26.5563 37.4396 28.1901 36.349 30 35.7674C29.7268 35.1831 29.3748 34.6365 28.9467 34.1518C28.4712 33.616 27.9275 33.1663 27.3259 32.8189C26.8872 32.5631 26.593 32.1134 26.5274 31.5991C26.4643 31.0875 26.6377 30.5732 27.0002 30.2124C28.2506 28.9684 28.9414 27.307 28.9414 25.5298C28.9414 21.9297 26.0861 19 22.5767 19C19.0673 19 16.3564 21.7546 16.2251 25.2713C16.2067 25.756 15.9808 26.2057 15.6078 26.5045C15.2348 26.8034 14.7488 26.9138 14.2891 26.8142C13.6955 26.6823 13.0913 26.6176 12.4872 26.6176C7.80885 26.6176 4 30.5194 4 35.3177C4 38.5705 5.7652 41.5082 8.50232 43C10.722 39.3191 14.6096 37.0438 18.8782 37.0438L18.8808 37.0464Z" fill="#48B2EC"/>
<path d="M34.5021 62.1903C35.6731 59.9303 35.5597 57.1796 34.2014 55.0161C33.9297 54.5844 33.8744 54.0456 34.0511 53.5657C34.2278 53.0831 34.6181 52.7158 35.1034 52.571C36.8916 52.0375 38.3501 50.8257 39.2152 49.1555C40.9665 45.7775 39.6873 41.5791 36.3668 39.7989C35.3777 39.2708 34.3122 39 33.2044 39C33.128 39 33.0541 39.0134 32.9803 39.0161C32.8748 39.0643 32.7613 39.1019 32.6427 39.1233C32.4343 39.1635 32.2259 39.1582 32.0281 39.118C30.0632 39.4719 28.3119 40.681 27.2965 42.4692C27.0591 42.8874 26.653 43.1769 26.1861 43.2601C25.7167 43.3405 25.2366 43.2145 24.8753 42.9035C24.3636 42.4692 23.8282 42.1019 23.2823 41.8123C21.9583 41.1046 20.5393 40.7453 19.0623 40.7453C15.6864 40.7453 12.6137 42.63 11.0418 45.6622C8.71552 50.1528 10.4167 55.7319 14.8345 58.0938C16.3457 58.9035 18.039 59.2493 19.7322 59.118C19.7744 59.1126 19.8166 59.1126 19.8588 59.1126C20.6052 59.1126 21.262 59.6408 21.4255 60.3914C21.8739 62.4531 23.1821 64.1984 25.0098 65.1769C26.0305 65.7239 27.1303 66 28.275 66C30.894 66 33.2809 64.5389 34.4994 62.185L34.5021 62.1903Z" fill="#48B2EC"/>
<path d="M96.6639 39.9431C96.2144 39.6864 95.9129 39.2325 95.8483 38.7192C95.7837 38.2058 95.9641 37.6898 96.3328 37.3304C97.9639 35.7418 98.8629 33.6181 98.8629 31.3459C98.8629 26.742 95.1351 23 90.554 23C87.9862 23 85.6984 24.1618 84.1776 25.999C84.1319 26.0693 84.0808 26.1341 84.0242 26.199C83.206 27.25 82.6354 28.5036 82.3958 29.8815C86.2582 31.6215 87.3403 34.7232 87.3887 34.8664C87.674 35.7283 87.2111 36.6604 86.3524 36.9468C86.1802 37.0035 86.0052 37.0305 85.833 37.0305C85.152 37.0305 84.5195 36.6009 84.2853 35.9228C84.2369 35.7958 83.3756 33.5884 80.2076 32.5536C79.4593 32.3942 78.7057 32.3105 77.9601 32.3105C71.9175 32.3105 67 37.2467 67 43.3096C67 49.3724 71.9175 54.3087 77.9601 54.3087C80.0111 54.3087 82.0217 53.7251 83.7739 52.62C84.0431 52.4498 84.3472 52.3661 84.646 52.3661C85.1143 52.3661 85.5773 52.5687 85.8976 52.9469C87.534 54.8868 89.9161 56 92.4354 56C97.1564 56 101 52.1445 101 47.4055C101 44.3308 99.3393 41.4696 96.6666 39.9404L96.6639 39.9431Z" fill="#48B2EC"/>
<path d="M62.8696 43.9095C62.8696 36.055 69.1828 29.668 76.9432 29.668C77.3502 29.668 77.7599 29.6868 78.1696 29.7245C78.4809 28.1197 79.1167 26.6441 80 25.357C79.4014 22.5809 78.0473 20.556 75.6476 18.8758C72.9739 17.0501 68.9274 16 64.5563 16H64.4233C61.6725 16 58.7646 16.4389 56.3543 17.1848L60.7679 19.5543C61.5581 19.9798 61.8587 20.9707 61.441 21.7704C61.151 22.3251 60.5897 22.6428 60.0097 22.6428C59.7543 22.6428 59.4936 22.5809 59.2515 22.4516L51.7757 18.4396L50.7408 17.9764C48.6897 17.0313 45.8191 16.35 42.8394 16.0969L37.3909 16.1723C34.1639 16.5493 31.3784 17.4917 29.3299 18.8946C29.2128 18.9781 29.1117 19.0643 29 19.1477C30.8304 20.933 31.977 23.4345 31.977 26.2052C31.977 28.222 31.3811 30.1392 30.269 31.7602C30.575 32.0268 30.8649 32.3122 31.139 32.6192C32.0196 33.5993 32.6873 34.7437 33.1236 35.9823C34.6427 36.0308 36.1538 36.4212 37.508 37.1428C42.4404 39.7736 44.3372 45.9775 41.738 50.9697C40.7563 52.8546 39.2612 54.3463 37.4255 55.2968C38.5402 58.116 38.4072 61.3311 36.9839 64.0588C36.0022 65.9436 34.4991 67.4192 32.7139 68.3859C33.6451 72.7103 34.8556 76.3562 36.3268 79.2131C37.7607 82 38.0933 82 39.4847 82C40.7324 82 40.9 80.1151 40.9 80.0963C41.0197 78.8604 41.041 77.4359 41.0676 75.7853C41.1288 71.7625 41.2059 66.7568 42.757 61.4522C42.757 61.4469 42.7915 61.3392 42.7915 61.3338C43.4221 59.2577 44.2069 56.6755 45.7898 54.2574C47.0908 52.2702 49.7565 50.2858 52.8053 50.2858H52.9117C54.6862 50.3127 57.2243 51.0316 59.2275 54.2978C60.6881 56.6835 61.5288 59.1392 62.2205 61.4388C63.7795 66.7407 64.426 72.6618 63.995 77.6944C63.838 79.5039 64.0748 80.8691 64.6601 81.5423C65.0326 81.9704 65.4609 82 65.5088 82C66.6235 82 67.0013 82 68.6986 79.1269C69.9516 77.0024 72.0534 71.7625 72.048 60.5717C72.0401 59.4462 72.0879 58.3584 72.1598 57.2921C66.7538 55.3049 62.8723 50.0676 62.8723 43.9149L62.8696 43.9095Z" fill="#E9E9EA"/>
<path d="M25.5012 4C26.8778 4 28 5.12219 28 6.49875C28 7.87531 26.8778 9 25.5012 9C24.1247 9 23 7.87781 23 6.49875C23 5.1197 24.1222 4 25.5012 4Z" fill="#48B2EC"/>
<path d="M87 74C85.3465 74 84 72.653 84 70.9987C84 69.3444 85.3465 68 87 68C88.6535 68 90 69.3444 90 70.9987C90 72.653 88.6535 74 87 74Z" fill="#48B2EC"/>
<path d="M96.8761 39.0191C98.7274 37.218 99.8815 34.6986 99.8815 31.9113C99.8815 26.4357 95.4629 22 90.0077 22C84.5526 22 80.3583 26.232 80.1526 31.5253C79.2951 31.3377 78.4135 31.2359 77.5052 31.2359C70.5994 31.2359 65 36.8535 65 43.779C65 50.7046 70.5994 56.3222 77.5052 56.3222C79.9469 56.3222 82.2177 55.6093 84.1412 54.3952C85.9978 56.5956 88.7708 58 91.8724 58C97.4638 58 102 53.4518 102 47.8422C102 44.0605 99.9323 40.7665 96.8761 39.0191Z" stroke="black" stroke-width="3" stroke-linecap="round" stroke-linejoin="round"/>
<path d="M35.8018 53.6199C37.9616 52.9955 39.873 51.55 41.0042 49.4376C43.2233 45.2897 41.6089 40.1614 37.4001 37.9772C33.2857 35.8462 28.2319 37.3183 25.929 41.2482C25.3432 40.7646 24.7034 40.3315 24.0014 39.9728C18.6695 37.2066 12.0688 39.2181 9.25838 44.4687C6.45069 49.7192 8.49976 56.2133 13.829 58.9768C15.7161 59.9546 17.757 60.324 19.7359 60.1725C20.2786 62.5852 21.8525 64.7561 24.2444 65.997C28.5639 68.2344 33.9066 66.6029 36.1798 62.354C37.7132 59.4896 37.4541 56.1682 35.8018 53.6199Z" stroke="black" stroke-width="3" stroke-linecap="round" stroke-linejoin="round"/>
<path d="M31 6.4986C31 8.98387 28.9867 11 26.5014 11C24.0161 11 22 8.98387 22 6.4986C22 4.01334 24.0161 2 26.5014 2C28.9867 2 31 4.01613 31 6.4986Z" stroke="black" stroke-width="3" stroke-linecap="round" stroke-linejoin="round"/>
<path d="M92 70.4987C92 72.9857 89.9863 75 87.5 75C85.0137 75 83 72.9857 83 70.4987C83 68.0117 85.0111 66 87.5 66C89.9889 66 92 68.0168 92 70.4987Z" stroke="black" stroke-width="3" stroke-linecap="round" stroke-linejoin="round"/>
<path d="M31 66.6621C30.9973 66.3035 32.0877 73.5038 35.0423 79.2966C36.7417 82.6305 37.5687 83 39.6351 83C41.8132 83 42.5684 80.7502 42.6642 79.5602C43.0817 75.1938 42.3477 68.3657 44.4566 61.0812C45.063 59.0624 45.8076 56.5437 47.2862 54.2667C49.2781 51.1964 54.6661 48.7891 57.9904 54.2667C59.3998 56.5926 60.2056 59.0624 60.8093 61.0812C62.4263 66.6295 62.8943 72.4305 62.5193 76.8594C61.9874 83.019 65.5245 83 65.6388 83C67.519 83 68.3381 82.5191 70.2236 79.2966C72.0932 76.0959 73.8059 70.0395 73.8005 59.7199C73.7899 58.0897 73.8617 56.6034 74 55.234" stroke="black" stroke-width="3" stroke-linecap="round" stroke-linejoin="round"/>
<path d="M83 25C82.3508 21.2217 80.4519 18.8457 77.7663 17.0539C74.5583 14.9687 70.0276 13.9897 65.532 14.0001C61.365 13.9897 57.268 14.8363 54.499 16.0386L53.3838 16.5112L52.2741 16.0386C50.0572 15.0648 46.9542 14.3481 43.6653 14.0884L37.9872 14.1637C34.6391 14.5272 31.4418 15.4725 29.0121 17.0617C28.2795 17.5473 27.6034 18.077 27 18.6691" stroke="black" stroke-width="3" stroke-linecap="round" stroke-linejoin="round"/>
<path d="M53 17L61 21" stroke="black" stroke-width="3" stroke-linecap="round" stroke-linejoin="round"/>
<path d="M32 37.9118C31.7081 36.3595 31.005 34.9593 30.0074 33.8365C29.4237 33.1758 28.7365 32.6076 27.9724 32.1645C29.4821 30.6638 30.424 28.5731 30.424 26.2486C30.424 21.692 26.8209 18 22.3794 18C17.9379 18 14.5153 21.5207 14.3481 25.925C13.6503 25.7701 12.9313 25.6885 12.1884 25.6885C6.56089 25.6885 2 30.3593 2 36.1284C2 40.704 4.87875 44.5944 8.87716 46" stroke="black" stroke-width="3" stroke-linecap="round" stroke-linejoin="round"/>
<path d="M85 35C85 35 84.0098 32.191 80 31" stroke="black" stroke-width="3" stroke-linecap="round" stroke-linejoin="round"/>
<path d="M40 23.018C42.8071 22.9212 44.9961 23.1646 47 25" stroke="white" stroke-width="3" stroke-miterlimit="10" stroke-linecap="round"/>
<path d="M19 46C16.5566 47.3937 16.4786 51.3333 18.0803 53" stroke="white" stroke-width="3" stroke-miterlimit="10" stroke-linecap="round"/>
<path d="M77 38C74.1083 38.6236 73.8152 41.6721 74.0744 44" stroke="white" stroke-width="3" stroke-miterlimit="10" stroke-linecap="round"/>
<path d="M90 29C90.2956 29.2575 90.6133 29.3809 91 29.3621" stroke="white" stroke-width="3" stroke-miterlimit="10" stroke-linecap="round"/>
</svg>
