<svg width="83" height="77" viewBox="0 0 83 77" fill="none" xmlns="http://www.w3.org/2000/svg">
<path d="M61.4576 59.1525C72.5876 48.0226 72.5876 29.9774 61.4576 18.8475C50.3277 7.71751 32.2825 7.71751 21.1525 18.8475C10.0226 29.9774 10.0226 48.0226 21.1525 59.1525C32.2825 70.2825 50.3277 70.2825 61.4576 59.1525Z" fill="#48B2EC"/>
<path d="M58.9888 26.3314C58.8697 23.1041 57.6162 21.2522 55.6956 19.9175C53.7638 18.6076 51.0322 17.9933 48.3209 18.0001C45.8094 17.9933 43.3407 18.524 41.6694 19.2806L40.9978 19.581L40.3306 19.2806C38.9918 18.6686 37.125 18.2214 35.1393 18.0565L31.7181 18.104C29.7009 18.3321 27.7735 18.926 26.3044 19.9242C24.3815 21.2545 23.128 23.1109 23.0112 26.3291C23.0045 26.5889 23 26.826 23 27.0428C23.0359 31.5913 24.0738 33.2331 25.3317 35.5277C26.6301 37.7839 28.1149 40.6701 28.0745 46.0113C28.0745 52.2107 29.1168 55.8513 30.2557 57.7732C31.4126 59.7087 31.8012 59.9977 33.0636 59.9977C34.3935 59.9977 34.8517 58.6449 34.9101 57.9313C35.1662 55.3092 34.7192 51.2057 36.0064 46.8289C36.3793 45.6161 36.8285 44.1029 37.7316 42.7321C38.9491 40.8869 42.2377 39.4438 44.2684 42.7321C45.1288 44.13 45.623 45.6138 45.9891 46.8289C46.9753 50.1623 47.2606 53.647 47.0337 56.3097C46.708 60.0113 48.8667 60 48.9386 60C50.0865 60 50.5874 59.7109 51.7398 57.7754C52.8809 55.8535 53.9255 52.2129 53.9233 46.0136C53.8851 40.6611 55.3744 37.7861 56.6728 35.5254C57.933 33.2331 58.9596 31.5935 59 27.0451C59 26.8215 58.9955 26.5866 58.991 26.3337L58.9888 26.3314Z" fill="#E9E9EA" stroke="black" stroke-width="3" stroke-linecap="round" stroke-linejoin="round"/>
<path d="M41 20L46 22" stroke="black" stroke-width="3" stroke-linecap="round" stroke-linejoin="round"/>
<path d="M5 46C8.62316 62.5881 23.1293 75 40.5034 75C57.8775 75 72.3768 62.5881 76 46" stroke="black" stroke-width="3" stroke-linecap="round" stroke-linejoin="round"/>
<path d="M76 31C72.3768 14.4122 57.8752 2 40.5011 2C23.127 2 8.62316 14.4122 5 31" stroke="black" stroke-width="3" stroke-linecap="round" stroke-linejoin="round"/>
<path d="M15 32H2V19" stroke="black" stroke-width="3" stroke-linecap="round" stroke-linejoin="round"/>
<path d="M68 45H81V58" stroke="black" stroke-width="3" stroke-linecap="round" stroke-linejoin="round"/>
<path d="M32 25C30.9793 25.3916 30.266 26.5542 30 28" stroke="white" stroke-width="3" stroke-miterlimit="10" stroke-linecap="round"/>
</svg>
