<svg width="102" height="85" viewBox="0 0 102 85" fill="none" xmlns="http://www.w3.org/2000/svg">
<path d="M96.9871 33.3174C96.8375 29.3261 95.2722 27.0299 92.8662 25.3785C90.455 23.7527 87.033 22.9898 83.6496 23.0001C80.5138 22.9898 77.4218 23.6448 75.333 24.5823L74.5 24.9572L73.6619 24.5823C71.9857 23.8271 69.6544 23.2698 67.1736 23.0695L62.8928 23.126C60.3734 23.4085 57.9596 24.1431 56.1312 25.3785C53.7304 27.0299 52.1599 29.3312 52.0103 33.3174C52.0103 33.6359 52 33.9287 52 34.2009C52.0438 39.8334 53.3384 41.865 54.9115 44.7083C56.5361 47.4975 58.3928 51.0702 58.3464 57.6864C58.3387 65.3608 59.6461 69.8683 61.0696 72.2467C62.5112 74.6404 62.9986 75 64.5742 75C66.2453 75 66.8178 73.3254 66.89 72.4444C67.2097 69.1928 66.6501 64.1151 68.2619 58.6958C68.7209 57.1933 69.2831 55.3183 70.4152 53.6206C71.9393 51.3322 76.0499 49.5523 78.5848 53.6206C79.6653 55.3517 80.2842 57.1933 80.7381 58.6958C81.9759 62.8206 82.3318 67.1381 82.043 70.4334C81.6433 75.0103 84.3381 74.9974 84.4284 74.9974C85.8596 74.9974 86.4888 74.6379 87.9278 72.2441C89.3539 69.8632 90.6613 65.3582 90.6484 57.6838C90.6072 51.0574 92.4639 47.495 94.0911 44.698C95.6642 41.8548 96.9484 39.8283 97 34.1958C97 33.9158 96.9948 33.6256 96.9897 33.3123L96.9871 33.3174Z" fill="#E9E9EA" stroke="black" stroke-width="3" stroke-linecap="round" stroke-linejoin="round"/>
<path d="M54.0284 55.7776C55.4816 52.6899 55.1734 50.3418 53.9688 48.1615C52.7409 46.0039 50.4018 44.1133 47.7907 42.8223C45.366 41.6101 42.7264 40.924 40.7473 40.8376L39.9546 40.7944L39.4547 40.1947C38.4574 38.9723 36.8772 37.6534 35.0406 36.5556L31.7171 34.9546C29.6551 34.1999 27.5103 33.8365 25.6089 34.0703C23.1091 34.4057 20.9928 35.5544 19.3142 38.5302C19.1898 38.769 19.0629 38.9901 18.9593 39.1934C16.7807 43.4983 16.9802 45.5364 17.0838 48.3012C17.2418 51.0483 17.2703 54.4764 14.641 59.4929C11.6206 65.325 10.8616 69.2512 11.0196 71.6069C11.1984 73.983 11.4315 74.4404 12.649 75.0427C13.9364 75.6856 15.0348 74.631 15.4389 73.9855C16.9621 71.6374 18.5241 67.5613 21.8942 64.062C22.8397 63.0963 24.008 61.8816 25.5493 61.0303C27.6242 59.8715 31.4969 60.0951 31.8544 64.1611C32.0072 65.8942 31.7611 67.5283 31.5228 68.8497C30.8571 72.4583 29.4375 75.8788 27.9221 78.2701C25.8135 81.5991 27.8962 82.6258 27.9688 82.6613C29.0723 83.2103 29.6992 83.1798 31.7534 81.9091C33.7868 80.6461 36.569 77.7237 39.5738 71.8789C42.1384 66.8243 44.9749 64.8244 47.327 63.325C49.6558 61.7673 51.4431 60.7177 53.6968 56.4561C53.8004 56.2426 53.9118 56.0164 54.031 55.7776H54.0284Z" fill="#48B2EC" stroke="black" stroke-width="3" stroke-linecap="round" stroke-linejoin="round"/>
<path d="M93 52C97.4788 52.4543 95.3609 52.3598 100 53" stroke="black" stroke-width="3" stroke-linecap="round" stroke-linejoin="round"/>
<path d="M2 53C2 53 9.98759 51.833 14 52.0204" stroke="black" stroke-width="3" stroke-linecap="round" stroke-linejoin="round"/>
<path d="M24 16L37 25" stroke="#BDC0C4" stroke-width="3" stroke-linecap="round" stroke-linejoin="round"/>
<path d="M44 20L40 2" stroke="#BDC0C4" stroke-width="3" stroke-linecap="round" stroke-linejoin="round"/>
<path d="M54 20L61 5" stroke="#BDC0C4" stroke-width="3" stroke-linecap="round" stroke-linejoin="round"/>
<path d="M54 42L64 35" stroke="black" stroke-width="3" stroke-linecap="round" stroke-linejoin="round"/>
<path d="M57 50L67 43" stroke="black" stroke-width="3" stroke-linecap="round" stroke-linejoin="round"/>
<path d="M59 58L65 54" stroke="black" stroke-width="3" stroke-linecap="round" stroke-linejoin="round"/>
<path d="M75 25L81 28" stroke="black" stroke-width="3" stroke-linecap="round" stroke-linejoin="round"/>
<path d="M39 40L42 45" stroke="black" stroke-width="3" stroke-linecap="round" stroke-linejoin="round"/>
<path d="M24 45C24.7875 42.7089 27.2966 40.8274 30 42.8809" stroke="white" stroke-width="3" stroke-linecap="round" stroke-linejoin="round"/>
<path d="M86 31.0037C89 30.8819 88.9803 33.7688 89 36" stroke="white" stroke-width="3" stroke-linecap="round" stroke-linejoin="round"/>
</svg>
