<svg viewBox="0 0 108 108" fill="none" xmlns="http://www.w3.org/2000/svg">
<path d="M80.6102 80.8701C95.4501 66.0301 95.4501 41.9699 80.6102 27.1299C65.7703 12.29 41.71 12.29 26.8701 27.1299C12.0301 41.9699 12.0301 66.0301 26.8701 80.8701C41.71 95.71 65.7703 95.71 80.6102 80.8701Z" fill="#48B2EC"/>
<path d="M39 44.9188C37.4535 44.4649 35.6359 44.141 33.7736 44L29.0964 44.0617C26.3477 44.3548 23.8865 45.1171 22.076 46.2651C19.6361 47.8384 18.3513 49.8722 18 52.7476C24.1977 56.0396 33.3964 52.6397 39 44.9188Z" fill="#BDC0C4"/>
<path d="M64.9908 54.7208L64.9839 54.3591C64.8484 50.7402 63.5945 48.2892 60.9143 46.4303C58.6315 44.8869 55.1981 44 51.5075 44H51.3605C48.2761 44 45.0724 44.6174 42.7941 45.654L41.8755 46.0617C41.6344 46.1677 41.3611 46.1677 41.1199 46.0617L40.362 45.7254C35.9503 52.4725 29.2166 56.4047 23.1903 56.4047C21.3668 56.4047 19.6099 56.0431 18 55.2921V55.3128C18.0482 60.922 19.2034 63.009 20.7996 65.8954L21.0499 66.3492C22.9331 69.6111 24.9472 73.7206 24.8944 81.0045C24.8875 90.2764 26.6628 94.6624 27.7192 96.4499C29.2488 99 29.5312 99 30.7278 99C32.1379 99 32.3033 97.0857 32.3055 97.065C32.4066 96.0353 32.425 94.8582 32.4479 93.4922C32.5008 90.2142 32.5674 86.1369 33.8351 81.8384L33.8672 81.7301C34.3771 80.0532 35.0155 77.9684 36.2902 76.0403C37.3007 74.5085 39.386 72.9651 41.7607 72.9651C43.1547 72.9651 45.1482 73.5041 46.7328 76.0657C47.9133 77.9753 48.6022 79.9656 49.1672 81.8338C50.4441 86.1323 50.9746 90.9375 50.621 95.0217C50.4786 96.6619 50.7105 97.8666 51.2962 98.507C51.7394 98.9931 52.2584 99 52.2814 99C53.3241 99 53.7558 99 55.2831 96.4476C56.3395 94.6647 58.1148 90.281 58.1079 81.0022C58.0597 73.7322 59.9865 69.7677 61.9662 66.3308L62.205 65.8954C63.7989 63.0113 64.9495 60.9266 65 55.3082C65 55.1262 64.9954 54.9281 64.9931 54.7254L64.9908 54.7208Z" fill="#E9E9EA"/>
<path d="M32 43L39 31" stroke="black" stroke-width="3" stroke-linecap="round" stroke-linejoin="round"/>
<path d="M65.9862 54.3091C65.8227 49.9338 64.1185 47.4171 61.5023 45.6046C58.8747 43.829 55.1531 42.9909 51.466 43.0001C48.0485 42.9886 44.6838 43.709 42.4131 44.741L41.5012 45.1451L40.5892 44.741C38.7698 43.9098 36.2297 43.2957 33.526 43.0786L28.8694 43.141C26.1197 43.4504 23.4966 44.2562 21.5 45.6092C18.8861 47.4171 17.1773 49.9407 17.0138 54.3091C17.0092 54.6532 17 54.981 17 55.2766C17.053 61.4483 18.4601 63.6787 20.1735 66.7911C21.9421 69.8527 23.9641 73.7686 23.9112 81.0208C23.9043 89.4368 25.3275 94.3709 26.8751 96.9869C28.448 99.6098 28.9777 100 30.6934 100C32.5081 100 33.1322 98.1644 33.2082 97.197C33.556 93.6367 32.9526 88.0676 34.7051 82.1291C35.2072 80.4852 35.8221 78.4256 37.0495 76.5693C38.7077 74.0618 43.1846 72.1038 45.9482 76.5693C47.1204 78.4649 47.7905 80.4875 48.2903 82.1291C49.6352 86.6545 50.0244 91.3855 49.7112 94.9943C49.2736 100.014 52.2099 100 52.3089 100C53.868 100 54.5497 99.6098 56.1203 96.9869C57.6702 94.3732 59.0934 89.4391 59.0865 81.0208C59.0382 73.7547 61.0625 69.8527 62.8311 66.7841C64.5422 63.6717 65.9447 61.446 66 55.2743C66 54.9672 65.9908 54.6485 65.9862 54.3068V54.3091Z" stroke="black" stroke-width="3" stroke-linecap="round" stroke-linejoin="round"/>
<path d="M41 45L47 48" stroke="black" stroke-width="3" stroke-linecap="round" stroke-linejoin="round"/>
<path d="M17 53.2713C23.7065 57.4664 33.9902 53.7643 40 45" stroke="black" stroke-width="3" stroke-linecap="round" stroke-linejoin="round"/>
<path d="M56 61.9989C56 65.8663 52.8686 69 49.0011 69C45.1337 69 42 65.8663 42 61.9989C42 58.1314 45.1314 55 49.0011 55C52.8708 55 56 58.1314 56 61.9989Z" fill="white" stroke="black" stroke-width="3" stroke-linecap="round" stroke-linejoin="round"/>
<path d="M55 67L66 77" stroke="black" stroke-width="3" stroke-linecap="round" stroke-linejoin="round"/>
<path d="M47 26.9977C47 29.7592 44.7632 32 41.9989 32C39.2345 32 37 29.7592 37 26.9977C37 24.2362 39.2413 22 41.9989 22C44.7565 22 47 24.2385 47 26.9977Z" fill="white" stroke="black" stroke-width="3" stroke-linecap="round" stroke-linejoin="round"/>
<path d="M74 80.4988C74 82.9852 71.987 85 69.5 85C67.013 85 65 82.9876 65 80.4988C65 78.0101 67.013 76 69.5 76C71.987 76 74 78.0172 74 80.4988Z" fill="white" stroke="black" stroke-width="3" stroke-linecap="round" stroke-linejoin="round"/>
<path d="M53 25H77" stroke="black" stroke-width="3" stroke-linejoin="round"/>
<path d="M53 32H69" stroke="black" stroke-width="3" stroke-linejoin="round"/>
<path d="M80 78H99" stroke="black" stroke-width="3" stroke-linejoin="round"/>
<path d="M80 85H92" stroke="black" stroke-width="3" stroke-linejoin="round"/>
</svg>
