<svg width="64" height="79" viewBox="0 0 64 79" fill="none" xmlns="http://www.w3.org/2000/svg">
<path d="M11.0526 38.3435C12.9552 37.7547 13.4503 36.7771 15.4542 37.524C17.2231 38.1835 17.0009 40.8492 19.5414 40.7129C22.3131 40.5675 21.0826 38.5379 22.4794 37.4186C24.6766 35.656 23.6882 36.5609 25.9775 36.7081C29.4847 36.937 32.0722 38.5052 33.5231 33.352C35.4439 36.3592 35.7384 39.7135 40.7236 39.1321C41.2133 41.7396 42.1782 43.9419 44.8705 44H45.7902C47.0315 41.6778 47.9548 39.4173 48 34.5585C48 34.2714 47.991 33.9752 47.9855 33.6518C47.8338 29.5252 46.2329 27.1594 43.7773 25.455C41.3109 23.7778 37.8181 22.991 34.3561 23.0001C31.1489 22.991 27.9868 23.6688 25.8547 24.6355L24.9982 25.0189L24.1435 24.6355C22.4378 23.8523 20.0509 23.2763 17.5104 23.0691L13.1395 23.1309C10.5593 23.4235 8.09828 24.1794 6.22272 25.455C3.76715 27.1576 2.16443 29.5306 2.01265 33.6445C2.00181 33.977 2 34.2768 2 34.5567C2.00542 35.2272 2.02891 35.845 2.06686 36.4246L2.38126 36.6045C4.73203 40.513 7.63752 39.3974 11.0508 38.3398L11.0526 38.3435Z" fill="#48B2EC" stroke="black" stroke-width="3" stroke-miterlimit="10"/>
<path d="M45.0709 44.567C42.3617 44.5075 41.3907 42.3237 40.898 39.7361C35.8796 40.3131 35.5832 36.9844 33.6522 34C32.1922 39.114 29.5884 37.5578 26.0592 37.3306C23.7573 37.1845 24.7519 36.2865 22.539 38.0356C21.1353 39.1464 22.3736 41.1607 19.5825 41.3049C17.0243 41.4402 17.2497 38.7948 15.4696 38.1402C13.4532 37.3991 12.955 38.3692 11.0404 38.9535C7.60387 40.003 4.68193 41.1084 2.31638 37.2314L2 37.0529C2.29092 41.4564 3.49824 43.3859 4.92921 45.9609C6.59655 48.8244 8.50572 52.4832 8.45663 59.2579C8.45663 67.1237 9.79669 71.7381 11.2604 74.1779C12.7514 76.6339 13.2496 77 14.8696 77C16.5824 77 17.1734 75.2833 17.2497 74.3781C17.5752 71.0511 17.0006 65.847 18.6571 60.2948C19.1334 58.7548 19.7189 56.838 20.8771 55.0997C22.4408 52.7609 26.6719 50.927 29.2829 55.0997C30.3903 56.8723 31.0248 58.7548 31.4939 60.2948C32.7667 64.5234 33.1322 68.9449 32.8376 72.3224C32.4213 77.0144 35.1959 77 35.2868 77C36.7651 77 37.4069 76.6339 38.8888 74.1779C40.3543 71.74 41.698 67.1237 41.6962 59.2579C41.6507 52.4688 43.5635 48.8244 45.2309 45.9573C45.4963 45.4794 45.7527 45.0232 46 44.5706H45.0745L45.0709 44.567Z" fill="#E9E9EA"/>
<path d="M47.9855 33.716C47.8338 29.5645 46.2329 27.1844 43.7773 25.4698C41.3109 23.7825 37.8181 22.991 34.3561 23.0001C31.1489 22.991 27.9868 23.6728 25.8547 24.6453L24.9982 25.031L24.1435 24.6453C22.4378 23.8574 20.0509 23.278 17.5104 23.0696L13.1395 23.1317C10.5593 23.426 8.09828 24.1865 6.22272 25.4698C3.76715 27.1826 2.16443 29.57 2.01265 33.7087C2.00181 34.0432 2 34.3448 2 34.6263C2.04517 40.476 3.36963 42.5837 4.97777 45.5342C6.63469 48.4371 8.53193 52.1461 8.48315 59.014C8.48315 66.9879 9.81483 71.6658 11.2694 74.1391C12.751 76.6289 13.2461 77 14.8561 77C16.5582 77 17.1454 75.2597 17.2213 74.342C17.5447 70.9693 16.9738 65.6937 18.6198 60.0652C19.0932 58.504 19.6751 56.5608 20.8261 54.7986C22.38 52.4277 26.5846 50.5686 29.1794 54.7986C30.2798 56.5956 30.9104 58.504 31.3765 60.0652C32.6414 64.3519 33.0046 68.8342 32.7118 72.2581C32.2981 77.0146 35.0554 77 35.1457 77C36.6147 77 37.2526 76.6289 38.7252 74.1391C40.1816 71.6676 41.5168 66.9879 41.515 59.014C41.4699 52.1315 43.3707 48.4371 45.0277 45.5305C46.6376 42.5801 47.9458 40.4742 48 34.6263C48 34.3375 47.991 34.0395 47.9855 33.7142V33.716Z" stroke="black" stroke-width="3" stroke-linecap="round" stroke-linejoin="round"/>
<path d="M25 25L31 28" stroke="black" stroke-width="3" stroke-linecap="round" stroke-linejoin="round"/>
<path d="M28.9981 12V6.43531C28.9981 3.98465 26.985 2 24.5009 2C22.0169 2 20 3.98465 20 6.43531V12H29H28.9981Z" fill="#48B2EC" stroke="black" stroke-width="3" stroke-miterlimit="10"/>
<path d="M49 8.9104L29 7V10.4475L49 17V8.9104Z" fill="#48B2EC" stroke="black" stroke-width="3" stroke-linejoin="round"/>
<path d="M25 12V20" stroke="black" stroke-width="3" stroke-miterlimit="10"/>
<path d="M19 18H29" stroke="black" stroke-width="3" stroke-miterlimit="10"/>
<path d="M62 8H49V16H62V8Z" fill="#48B2EC" stroke="black" stroke-width="3" stroke-linecap="round" stroke-linejoin="round"/>
<path d="M10 28.005L10.0636 28" stroke="black" stroke-width="3" stroke-miterlimit="10" stroke-linecap="round"/>
<path d="M15 28.2019L17 28" stroke="black" stroke-width="3" stroke-miterlimit="10" stroke-linecap="round"/>
<path d="M19 28.005L19.0636 28" stroke="black" stroke-width="3" stroke-miterlimit="10" stroke-linecap="round"/>
<path d="M7 33H7.06694" stroke="black" stroke-width="3" stroke-miterlimit="10" stroke-linecap="round"/>
<path d="M13 33H16" stroke="black" stroke-width="3" stroke-miterlimit="10" stroke-linecap="round"/>
<path d="M19 33H19.0636" stroke="black" stroke-width="3" stroke-miterlimit="10" stroke-linecap="round"/>
<path d="M24 29L24.0586 29.0268" stroke="black" stroke-width="3" stroke-miterlimit="10" stroke-linecap="round"/>
<path d="M28 31L28.0602 31.0284" stroke="black" stroke-width="3" stroke-miterlimit="10" stroke-linecap="round"/>
<path d="M35 28L41 29" stroke="black" stroke-width="3" stroke-miterlimit="10" stroke-linecap="round"/>
<path d="M37 31L45 35" stroke="black" stroke-width="3" stroke-miterlimit="10" stroke-linecap="round"/>
<path d="M15 19L13 16" stroke="black" stroke-width="3" stroke-miterlimit="10"/>
<path d="M10 9L8 5" stroke="black" stroke-width="3" stroke-miterlimit="10"/>
<path d="M9 15L4 13" stroke="black" stroke-width="3" stroke-miterlimit="10"/>
<path d="M2 37.3638C4.37914 41.4015 7.31968 40.249 10.7741 39.1565C12.6997 38.5483 13.2008 37.5384 15.2288 38.3099C17.0191 38.9913 16.7942 41.745 19.3653 41.6043C22.1705 41.4541 20.9252 39.3573 22.3388 38.201C24.5625 36.3802 23.5622 37.315 25.8791 37.4671C29.4286 37.7036 32.0473 39.3235 33.5158 34C35.4597 37.1067 35.7578 40.5718 40.8031 39.9712C41.2987 42.6648 42.2752 44.9399 45 45" stroke="black" stroke-width="3" stroke-linecap="round" stroke-linejoin="round"/>
</svg>
