<svg width="99" height="99" viewBox="0 0 99 99" fill="none" xmlns="http://www.w3.org/2000/svg">
<circle cx="49.5" cy="49.5" r="49.5" fill="url(#paint0_radial_0_1)"/>
<path d="M26.5197 37.7401C26.5197 36.8979 27.2088 36.2089 28.051 36.2089H34.0687C34.7348 36.2089 35.3013 36.6376 35.5081 37.2348C35.5616 37.3956 35.5999 37.564 35.5999 37.7401V40.971H39.1294V33.9733C39.1294 33.6441 38.8615 33.3761 38.5322 33.3761H23.5874C23.2582 33.3761 22.9902 33.6441 22.9902 33.9733V40.971H26.5197V37.7401Z" fill="#267DE7"/>
<path d="M23.0591 48.1678C23.5568 52.1413 26.9485 55.2344 31.0598 55.2344C35.5081 55.2344 39.1294 51.6131 39.1294 47.1648V42.5099H35.5999V45.6336C35.5999 46.4758 34.9109 47.1648 34.0687 47.1648H28.051C27.2088 47.1648 26.5197 46.4758 26.5197 45.6336V42.5099H22.9902V47.1648C22.9902 47.2873 23.0055 47.4022 23.0055 47.5247C23.0132 47.7467 23.0285 47.9611 23.0591 48.1754V48.1678Z" fill="#267DE7"/>
<path d="M49.5032 55.2269C53.9514 55.2269 57.5728 51.6055 57.5728 47.1573V42.5023H54.0433V45.626C54.0433 46.4682 53.3542 47.1573 52.5121 47.1573H46.4943C45.6521 47.1573 44.9631 46.4682 44.9631 45.626V42.5023H41.4336V47.1573C41.4336 51.6055 45.055 55.2269 49.5032 55.2269Z" fill="#267DE7"/>
<path d="M44.9629 37.7401C44.9629 37.564 45.0012 37.3956 45.0548 37.2348C45.2615 36.6376 45.8281 36.2089 46.4942 36.2089H52.5119C53.3541 36.2089 54.0431 36.8979 54.0431 37.7401V40.971H57.5726V33.9733C57.5726 33.6441 57.3047 33.3761 56.9754 33.3761H42.023C41.6937 33.3761 41.4258 33.6441 41.4258 33.9733V40.971H44.9553V37.7401H44.9629Z" fill="#267DE7"/>
<path d="M67.9397 55.2269C72.0511 55.2269 75.4427 52.1414 75.9404 48.1602C75.9634 47.9458 75.9787 47.7315 75.994 47.5171C75.994 47.3946 76.0093 47.2798 76.0093 47.1573V42.5023H72.4798V45.626C72.4798 46.4682 71.7908 47.1573 70.9486 47.1573H64.9308C64.0887 47.1573 63.3996 46.4682 63.3996 45.626V42.5023H59.8701V47.1573C59.8701 51.6055 63.4915 55.2269 67.9397 55.2269Z" fill="#267DE7"/>
<path d="M63.4004 37.7401C63.4004 36.8979 64.0895 36.2089 64.9317 36.2089H70.9494C71.7916 36.2089 72.4806 36.8979 72.4806 37.7401V40.971H76.0101V33.9733C76.0101 33.6441 75.7422 33.3761 75.4129 33.3761H60.4605C60.1312 33.3761 59.8633 33.6441 59.8633 33.9733V40.971H63.3928V37.7401H63.4004Z" fill="#267DE7"/>
<path d="M28.0518 40.971V42.5022V45.626H34.0695V42.5022V40.971V37.7401H28.0518V40.971Z" fill="#267DE7"/>
<path d="M46.4951 37.7401V40.971V42.5022V45.626H52.5129V42.5022V40.971V37.7401H50.5988H46.8626H46.4951Z" fill="#267DE7"/>
<path d="M64.9307 40.971V42.5022V45.626H70.9484V42.5022V40.971V37.7401H64.9307V40.971Z" fill="#267DE7"/>
<path d="M79.7073 46.9965H78.3063V47.1649C78.3063 47.295 78.3063 47.4175 78.2909 47.5477V47.6243C78.2756 47.9075 78.2527 48.1832 78.222 48.4588C77.5713 53.6344 73.1537 57.5313 67.9398 57.5313C63.9203 57.5313 60.4444 55.2345 58.7218 51.8811C56.9992 55.2268 53.5156 57.5313 49.5038 57.5313C45.492 57.5313 42.0084 55.2345 40.2858 51.8811C38.5631 55.2268 35.0796 57.5313 31.0678 57.5313C25.8539 57.5313 21.4363 53.6267 20.7855 48.4588C20.7549 48.1832 20.7319 47.9075 20.7166 47.6243V47.5477C20.7013 47.4252 20.6937 47.295 20.6937 47.1649V46.9965H19.2926C17.9374 46.9965 16.835 48.0989 16.835 49.4541V65.6239H82.165V49.4541C82.165 48.0989 81.0625 46.9965 79.7073 46.9965Z" fill="#267DE7"/>
<defs>
<radialGradient id="paint0_radial_0_1" cx="0" cy="0" r="1" gradientUnits="userSpaceOnUse" gradientTransform="translate(49.5 49.5) rotate(90) scale(49.5)">
<stop offset="0.458333" stop-color="#004999" stop-opacity="0"/>
<stop offset="1" stop-color="#004999" stop-opacity="0.11"/>
</radialGradient>
</defs>
</svg>
