<svg width="99" height="99" viewBox="0 0 99 99" fill="none" xmlns="http://www.w3.org/2000/svg">
<circle cx="49.5" cy="49.5" r="49.5" fill="url(#paint0_radial_0_1)"/>
<path d="M27.5 36C27.7134 32.9531 29.7378 29.6769 34 29.5C29.7378 29.3231 27.7134 26.0469 27.5 23C27.2866 26.0469 25.2622 29.3231 21 29.5C25.2622 29.6769 27.2866 32.9531 27.5 36Z" fill="#267DE7"/>
<path d="M59.5734 39.4501C55.8838 38.4281 54.0644 39.2597 50.8947 40.8086C51.4906 41.0625 52.0865 41.2085 52.7205 41.1768C53.3354 41.1514 53.8552 41.6212 53.8869 42.2306C53.9186 42.8463 53.4431 43.3669 52.8346 43.3986C50.6982 43.5002 49.0436 42.4274 47.4333 41.3863C45.3096 40.0087 43.1162 38.5868 39.3949 39.4692C34.5262 40.6245 34 46.706 34 49.2706C34 53.1747 34.6973 57.5232 35.8258 61.605C35.9526 62.0621 36.0793 62.5128 36.2188 62.9572C38.2538 69.6417 41.3982 75.3868 44.4474 76.9484C44.5996 77.0246 44.7327 77.0055 44.7961 76.9611C44.8342 76.9357 44.8595 76.9039 44.8595 76.8278V68.0229C44.8595 65.4583 46.9452 63.3761 49.5 63.3761C52.0548 63.3761 54.1405 65.4647 54.1405 68.0229V76.8278C54.1405 76.9103 54.1658 76.942 54.2039 76.9611C54.2736 77.0055 54.4067 77.0246 54.5526 76.9484C57.5955 75.3868 60.7462 69.6417 62.7812 62.9572C62.9143 62.5128 63.0474 62.0557 63.1742 61.605C64.3027 57.5232 65 53.1747 65 49.2706C65 46.7695 64.4738 40.815 59.5671 39.4565L59.5734 39.4501ZM56.2769 56.5456C56.0677 53.5937 54.0834 50.4196 49.9057 50.2482C54.0834 50.0768 56.0677 46.9028 56.2769 43.9509C56.4861 46.9028 58.4703 50.0768 62.6481 50.2482C58.4703 50.4196 56.4861 53.5937 56.2769 56.5456Z" fill="#267DE7"/>
<path d="M71.9282 56.9044C72.3713 54.1012 72.6055 51.4136 72.6055 49.0347C72.6055 40.1106 68.5225 33.6425 61.6858 31.7265C59.9386 31.2379 58.3244 31 56.7545 31C53.6083 31 51.1649 31.9387 48.8037 33.0703C47.1135 32.1702 44.6763 31.1865 41.4795 31.1865C40.1945 31.1865 38.8651 31.3472 37.5294 31.6751C30.5535 33.3532 26.3945 39.847 26.3945 49.0411C26.3945 51.4201 26.6287 54.1076 27.0718 56.9108H15V61H32.3133C31.3131 56.9944 30.7434 52.8988 30.7434 49.2919C30.7434 42.0844 33.8516 37.0373 39.0614 35.7835C40.1059 35.5328 41.1314 35.4042 42.1189 35.4042C45.0372 35.4042 47.2464 36.5294 48.7657 37.4681C51.0826 36.3172 53.2728 35.237 56.1784 35.237C57.4002 35.237 58.6662 35.4235 60.0526 35.8157C65.2687 37.2752 68.2566 42.1873 68.2566 49.2919C68.2566 52.8988 67.6869 57.0009 66.6867 61H84V56.9108H71.9282V56.9044Z" fill="#267DE7"/>
<defs>
<radialGradient id="paint0_radial_0_1" cx="0" cy="0" r="1" gradientUnits="userSpaceOnUse" gradientTransform="translate(49.5 49.5) rotate(90) scale(49.5)">
<stop offset="0.458333" stop-color="#004999" stop-opacity="0"/>
<stop offset="1" stop-color="#004999" stop-opacity="0.11"/>
</radialGradient>
</defs>
</svg>
