<svg width="99" height="99" viewBox="0 0 99 99" fill="none" xmlns="http://www.w3.org/2000/svg">
<circle cx="49.5" cy="49.5" r="49.5" fill="url(#paint0_radial_0_1)"/>
<path d="M31.074 43.6473L33.7885 38.7473C35.9998 35.3963 39.637 33.4409 43.541 33.4409H49.1988C49.2979 33.4409 49.3971 33.4715 49.4886 33.5022C49.5801 33.4715 49.6716 33.4409 49.7783 33.4409H55.4361C59.3402 33.4409 62.9697 35.4039 65.1505 38.6859C65.1657 38.7089 65.181 38.7319 65.1886 38.7549L67.9184 43.6779C68.0632 43.8773 68.2844 43.9923 68.5284 43.9923H70C69.329 39.307 67.5524 34.246 64.1592 31.0024C63.4577 30.4349 62.7791 30.2125 62.0776 30.3122C60.5297 30.5346 59.3325 32.2293 59.3173 32.2446C59.1343 32.5053 58.8445 32.6587 58.5319 32.6587C58.4556 32.6587 58.3794 32.651 58.3031 32.628C57.9219 32.536 57.6321 32.2139 57.5864 31.8152C57.0908 27.9274 54.4449 27.9811 54.1475 28.0041C54.117 28.0041 54.0712 28.0041 54.0331 28.0041C53.751 28.0041 51.1585 28.0041 50.5484 30.9257C50.4493 31.4088 49.9994 31.7155 49.5191 31.6695C49.0234 31.7385 48.5583 31.4165 48.4592 30.9257C47.8339 27.9121 45.0889 28.0041 44.9745 28.0041C44.9364 28.0041 44.8906 28.0041 44.8525 28.0041C44.5704 27.9888 41.9169 27.9274 41.4212 31.8152C41.3679 32.2063 41.0857 32.536 40.6969 32.628C40.6206 32.6434 40.5444 32.6587 40.4681 32.6587C40.1555 32.6587 39.8657 32.5053 39.6827 32.2446C39.6751 32.2293 38.4703 30.5346 36.9224 30.3122C36.2209 30.2125 35.5423 30.4349 34.8561 31.0024C31.4476 34.2537 29.671 39.3147 29 44H30.4716C30.7233 44 30.952 43.8773 31.0969 43.6626L31.074 43.6473Z" fill="#267DE7"/>
<path d="M42 28C40.95 28.1653 39.95 28.4628 39 28.876C39.725 29.157 40.3667 29.5702 40.875 30C41.1667 29.1901 41.5583 28.5289 42 28Z" fill="#267DE7"/>
<path d="M61.9917 28.8797C61.0443 28.4647 60.0388 28.166 59 28C59.4404 28.5311 59.831 29.1867 60.1219 30C60.6288 29.5685 61.2687 29.1618 62 28.8714L61.9917 28.8797Z" fill="#267DE7"/>
<path d="M56.6789 54C54.2911 54 52.0184 54.796 50.2755 56.2503C49.8302 56.6254 49.1775 56.6254 48.7322 56.2503C46.9893 54.8037 44.7166 54 42.3288 54C37.9446 54 33.0384 57.8271 33.0384 62.9401C33.0384 63.0396 33.023 63.1315 33 63.2157C36.2939 67.7776 41.5917 71 49.5 71C57.4083 71 62.7061 67.7776 66 63.2157C65.977 63.1238 65.9616 63.032 65.9616 62.9401C65.9616 57.8195 61.0554 54 56.6712 54H56.6789Z" fill="#267DE7"/>
<path d="M50 79C60.949 79 74 73.6803 74 48.3464C74 38.3355 70.8739 26.2396 63.898 21.7784C60.2098 19.4174 55.7363 19.4098 50.6006 21.7477C50.2156 21.924 49.7767 21.924 49.3994 21.7477C46.8431 20.5826 44.4485 20 42.231 20C40.0135 20 37.95 20.5902 36.102 21.7784C29.1261 26.2396 26 38.3355 26 48.3464C26 73.6803 39.051 79 50 79ZM31.0895 63.3474C28.5101 59.1851 27.0395 53.8117 27.0395 48.3464C27.0395 41.7389 29.2955 32.4715 35.64 28.1176C39.6131 25.3887 44.4408 25.0285 50 27.0444C55.5592 25.0285 60.3869 25.3887 64.36 28.1176C70.7045 32.4791 72.9605 41.7389 72.9605 48.3464C72.9605 53.8117 71.4899 59.1851 68.9105 63.3474C68.8643 63.7077 68.6564 64.0143 68.3561 64.2059C68.2868 64.3132 68.2175 64.4282 68.1482 64.5355C64.1136 70.1925 57.8383 73.1897 50 73.1897C42.1617 73.1897 35.8864 70.2002 31.8518 64.5355C31.7748 64.4282 31.7132 64.3132 31.6439 64.2059C31.3436 64.022 31.1434 63.7153 31.0895 63.3474Z" fill="#267DE7"/>
<path d="M58.4374 44.8326C56.9061 43.4511 55.044 42.8043 53.3435 43.0518C52.8895 43.1157 52.5048 43.3233 52.3817 43.5709C52.2739 43.7865 52.3509 44.1698 52.5817 44.617L53.205 45.6072C53.936 46.7571 54.0976 48.2185 53.6436 49.5201C53.2127 50.7579 52.2816 51.6762 51.0966 52.0435C50.6196 52.1953 50.1194 52.2432 49.6039 52.2272C49.5577 52.2272 49.5346 52.2272 49.5038 52.2272C49.4731 52.2272 49.45 52.2272 49.4269 52.2272C48.896 52.2432 48.3958 52.1873 47.9187 52.0435C46.7338 51.6762 45.8104 50.7579 45.3718 49.5201C44.9178 48.2185 45.0794 46.7571 45.8104 45.6072L46.4337 44.617C46.6645 44.1698 46.7338 43.7865 46.6337 43.5709C46.5183 43.3313 46.1336 43.1157 45.6719 43.0518C43.9714 42.8043 42.1093 43.4511 40.578 44.8326C38.5389 46.6693 37.2924 49.56 37 53.0737C38.6159 52.1953 40.4241 51.6842 42.3093 51.6842C44.9255 51.6842 47.4417 52.4987 49.4962 54C51.5506 52.4987 54.0668 51.6842 56.6907 51.6842C58.5759 51.6842 60.3841 52.1953 62 53.0737C61.7076 49.56 60.4611 46.6773 58.422 44.8326H58.4374Z" fill="#267DE7"/>
<defs>
<radialGradient id="paint0_radial_0_1" cx="0" cy="0" r="1" gradientUnits="userSpaceOnUse" gradientTransform="translate(49.5 49.5) rotate(90) scale(49.5)">
<stop offset="0.458333" stop-color="#004999" stop-opacity="0"/>
<stop offset="1" stop-color="#004999" stop-opacity="0.11"/>
</radialGradient>
</defs>
</svg>
