<svg width="99" height="99" viewBox="0 0 99 99" fill="none" xmlns="http://www.w3.org/2000/svg">
<circle cx="49.5" cy="49.5" r="49.5" fill="url(#paint0_radial_0_1)"/>
<path d="M58.8646 50.0088L60.8105 49.7265L64.7229 45.345L63.7826 44.5036L58.8646 50.0088Z" fill="#267DE7"/>
<path d="M63.855 42.4037C63.7077 42.5682 63.7216 42.8177 63.8859 42.9605L66.2649 45.0894C66.4295 45.2367 66.679 45.2229 66.8218 45.0585L67.5328 44.264L64.566 41.6091L63.855 42.4037Z" fill="#267DE7"/>
<path d="M78.2243 26.6906L75.2344 30.0319L77.9107 32.4268L80.9006 29.0856L78.2243 26.6906Z" fill="#267DE7"/>
<path d="M71.3888 28.1834C71.0315 27.8636 70.4791 27.8943 70.1594 28.2516C69.8396 28.6089 69.8703 29.1613 70.2276 29.4811L71.2291 30.3772L65.2108 37.0695C64.3482 38.0334 64.0185 39.5798 65.1751 40.6148L68.4475 43.5432C69.59 44.5656 71.109 44.0791 71.9716 43.1153L77.9713 36.4106L78.9869 37.3194C79.1655 37.4793 79.3929 37.5516 79.6112 37.5395C79.8295 37.5274 80.052 37.4301 80.2119 37.2515C80.5316 36.8941 80.501 36.3418 80.1436 36.022L71.3844 28.1837L71.3888 28.1834ZM67.5388 39.7285L66.1236 38.4621L66.7631 37.7474L68.1783 39.0139L67.5388 39.7285ZM70.2301 39.1905L67.5878 36.8259L68.2273 36.1113L70.8696 38.4758L70.2301 39.1905ZM70.4671 36.4561L69.0519 35.1897L69.6915 34.4751L71.1067 35.7415L70.4671 36.4561ZM73.154 35.9183L70.5116 33.5538L71.1512 32.8391L73.7935 35.2037L73.154 35.9183Z" fill="#267DE7"/>
<path d="M77.6438 24.0933L77.5308 24.2196C77.3714 24.3977 77.3866 24.6713 77.5647 24.8307L82.7943 29.5105C82.9724 29.6699 83.246 29.6547 83.4054 29.4766L83.5184 29.3502C83.6778 29.1721 83.6626 28.8986 83.4845 28.7392L78.2549 24.0594C78.0768 23.9 77.8032 23.9152 77.6438 24.0933Z" fill="#267DE7"/>
<path d="M39.625 67.451C39.7509 67.517 39.8649 67.499 39.9249 67.463C39.9548 67.445 39.9728 67.427 39.9728 67.361V59.2472C39.9728 56.8725 41.9098 54.9355 44.2846 54.9355C46.6594 54.9355 48.5964 56.8725 48.5964 59.2472V67.361C48.5964 67.433 48.6144 67.445 48.6443 67.463C48.7043 67.499 48.8123 67.517 48.9442 67.451C53.6278 65.0522 58.5752 51.943 58.5752 41.9522C58.5752 39.6554 58.0894 34.1742 53.5798 32.9329C50.1975 32.0033 48.5244 32.7529 45.6399 34.1562C46.1676 34.3721 46.7013 34.504 47.2591 34.4741C47.8468 34.4561 48.3325 34.8938 48.3625 35.4695C48.3925 36.0452 47.9427 36.543 47.367 36.567C45.394 36.6689 43.8528 35.6674 42.3656 34.7079C40.4106 33.4426 38.3837 32.1293 34.9594 32.9448C30.4798 34.0063 30 39.6014 30 41.9582C30 51.949 34.9534 65.0582 39.631 67.457L39.625 67.451Z" fill="#267DE7"/>
<path d="M64.8678 50.2462H62.3311C60.7239 50.2462 59.3206 51.3317 58.9188 52.8849C56.8919 60.7588 53.0899 67.3434 49.7616 69.0525C49.4497 69.2144 49.1079 69.2984 48.7661 69.2984C48.3823 69.2984 48.0105 69.1964 47.6927 68.9925C47.129 68.6447 46.7991 68.051 46.7991 67.3614V59.3555C46.7991 58.0422 45.8456 56.8728 44.5383 56.7409C43.0391 56.5969 41.7737 57.7723 41.7737 59.2416V67.3554C41.7737 68.033 41.4499 68.6267 40.8862 68.9805C40.5444 69.1904 40.1786 69.2924 39.8007 69.2924C39.4589 69.2924 39.1171 69.2084 38.8053 69.0465C35.477 67.3374 31.675 60.7528 29.648 52.8789C29.2462 51.3257 27.8429 50.2402 26.2358 50.2402H23.6991C22.3138 50.2402 21.1924 51.3617 21.1924 52.7469V75.2293H67.3685V52.7469C67.3685 51.3617 66.247 50.2402 64.8618 50.2402L64.8678 50.2462Z" fill="#267DE7"/>
<defs>
<radialGradient id="paint0_radial_0_1" cx="0" cy="0" r="1" gradientUnits="userSpaceOnUse" gradientTransform="translate(49.5 49.5) rotate(90) scale(49.5)">
<stop offset="0.458333" stop-color="#004999" stop-opacity="0"/>
<stop offset="1" stop-color="#004999" stop-opacity="0.11"/>
</radialGradient>
</defs>
</svg>
