<svg width="99" height="99" viewBox="0 0 99 99" fill="none" xmlns="http://www.w3.org/2000/svg">
<circle cx="49.5" cy="49.5" r="49.5" fill="url(#paint0_radial_0_1)"/>
<path d="M54.3375 51.6676H44.666V54.529H54.3375V51.6676Z" fill="#267DE7"/>
<path d="M41.2891 49.2149H42.6216H56.3808H57.7134V46.6396H41.2891V49.2149Z" fill="#267DE7"/>
<path d="M64.2301 27.1006C64.0992 24.3782 62.8239 21.713 60.8209 19.9553C59.3167 18.6554 57.5753 18.0096 55.8912 18.1486C54.5831 18.263 52.3431 18.7535 50.7243 19.4157C52.2858 20.4704 53.8964 21.3697 56.2182 21.4514C56.8967 21.4759 57.42 22.0482 57.3954 22.7186C57.3709 23.3971 56.8232 23.9285 56.1283 23.8958C52.6701 23.765 50.4464 22.2117 48.4843 20.8383C46.6448 19.5711 45.0261 18.4347 42.5244 18.4347C42.0094 18.4347 41.4616 18.4837 40.8648 18.59C37.6519 19.1541 34.9213 23.0293 34.766 27.2396C34.6842 29.6104 36.769 37.7695 38.6902 42.5602C39.0826 43.5494 40.0309 44.1871 41.1101 44.1953C41.1183 44.1953 58.4664 44.1953 58.4664 44.1953C59.5701 44.1953 60.543 43.5167 60.919 42.503C62.734 37.5814 64.3527 29.5287 64.2301 27.1088V27.1006Z" fill="#267DE7"/>
<path d="M49.497 80.8701L53.9035 75.458H45.0986L49.497 80.8701Z" fill="#267DE7"/>
<path d="M44.6655 56.9816H42.2129V58.4858H44.6655V60.7995H54.337V58.4858H56.7896V56.9816H54.337H44.6655Z" fill="#267DE7"/>
<path d="M44.6655 63.252H42.2129V64.748H44.6655V67.0699H54.337V64.748H56.7896V63.252H54.337H44.6655Z" fill="#267DE7"/>
<path d="M44.6655 69.5227H42.2129V71.0188H44.6655V73.3651H54.337V71.0188H56.7896V69.5227H54.337H44.6655Z" fill="#267DE7"/>
<defs>
<radialGradient id="paint0_radial_0_1" cx="0" cy="0" r="1" gradientUnits="userSpaceOnUse" gradientTransform="translate(49.5 49.5) rotate(90) scale(49.5)">
<stop offset="0.458333" stop-color="#004999" stop-opacity="0"/>
<stop offset="1" stop-color="#004999" stop-opacity="0.11"/>
</radialGradient>
</defs>
</svg>
