<svg width="99" height="99" viewBox="0 0 99 99" fill="none" xmlns="http://www.w3.org/2000/svg">
<circle cx="49.5" cy="49.5" r="49.5" fill="url(#paint0_radial_0_1)"/>
<path d="M50.7894 27.0076C50.3646 27.0076 49.9397 27 49.5074 27C49.0752 27 48.6503 27 48.218 27.0076C28.698 27.1819 20 31.2597 20 32.8363V39.2638C20.2758 39.1046 20.5963 39.0061 20.9391 39.0061C21.6993 39.0061 22.3925 39.2713 22.9589 39.7034C23.3763 38.8166 24.2633 38.195 25.2918 38.195C26.6558 38.195 27.9079 38.7029 28.8768 39.5442C29.093 39.7337 29.2942 39.9384 29.4805 40.1582C29.9948 38.9303 31.1948 38.0662 32.5886 38.0662C34.8618 38.0662 36.8742 39.2183 38.104 40.9768C38.8493 39.1198 40.6381 37.8009 42.7324 37.8009C45.6765 37.8009 48.2329 39.5139 49.5 42C50.767 39.5063 53.3235 37.8009 56.2676 37.8009C58.3619 37.8009 60.1507 39.1122 60.896 40.9768C62.1258 39.2183 64.1382 38.0662 66.4114 38.0662C67.8052 38.0662 69.0052 38.9303 69.5194 40.1582C69.7058 39.9384 69.907 39.7337 70.1232 39.5442C71.0921 38.7029 72.3368 38.195 73.7082 38.195C74.7367 38.195 75.6237 38.8166 76.041 39.7034C76.6075 39.2713 77.3006 39.0061 78.0609 39.0061C78.4037 39.0061 78.7242 39.1046 79 39.2638V32.8363C79.0074 31.2597 70.3095 27.1819 50.7894 27.0076Z" fill="#267DE7"/>
<path d="M73.8083 61.9638C73.1642 61.9638 72.5718 61.7725 72.0609 61.4635V62.6995C72.0609 64.1121 70.9058 65.2671 69.4768 65.2671C67.9367 65.2671 66.5373 64.6271 65.5377 63.6118V63.7589C65.5377 65.4143 64.1827 66.7606 62.5168 66.7606C60.6731 66.7606 59.0293 65.9219 57.9335 64.6197C57.3263 66.4222 55.616 67.7244 53.602 67.7244C51.8842 67.7244 50.3811 66.8342 49.5074 65.5025C48.6411 66.8342 47.1306 67.7244 45.4128 67.7244C43.3989 67.7244 41.6885 66.4222 41.0813 64.6197C39.9855 65.9293 38.3417 66.7606 36.498 66.7606C34.8321 66.7606 33.4771 65.4143 33.4771 63.7589V63.6118C32.4775 64.6344 31.0855 65.2671 29.538 65.2671C28.1164 65.2671 26.9539 64.1194 26.9539 62.6995V61.4635C26.443 61.7725 25.8507 61.9638 25.2065 61.9638C24.4957 61.9638 23.8811 61.5739 23.5553 61L23 62.1624V68.3571C23 70.7114 33.0847 74 49.5 74C65.9153 74 76 70.7114 76 68.3571V62.1624L75.4447 61C75.1189 61.5739 74.5043 61.9638 73.7935 61.9638H73.8083Z" fill="#267DE7"/>
<path d="M48 44.1325C47.6619 41.2482 45.2158 39 42.259 39C40.4604 39 39 40.4675 39 42.2747V49.1711C39 50.1831 39.813 51 40.8201 51H47.0504C47.5108 51 47.8777 50.6819 47.9928 50.2554C47.9856 50.1687 47.964 50.0892 47.964 49.9952V44.8048C47.964 44.5735 47.9784 44.3494 48 44.1253V44.1325Z" fill="#267DE7"/>
<path d="M32.784 39C31.8013 39 31 39.7528 31 40.6761V47.4446C31 48.304 31.7408 49 32.6555 49H36.3823C37.2743 49 38 48.3182 38 47.4801V43.9077C38 41.2017 35.6566 39 32.7765 39H32.784Z" fill="#267DE7"/>
<path d="M27.1707 40.6115C26.5457 40.2302 25.7988 40 24.9985 40C24.4497 40 24 40.4245 24 40.9424V47.9856C24 48.5468 24.4802 49 25.0747 49H27.9482C28.5274 49 29 48.554 29 48.0072V43.777C29 42.4532 28.2683 41.2878 27.1707 40.6115Z" fill="#267DE7"/>
<path d="M21.292 40C21.1314 40 21 40.1402 21 40.3115V46.3459C21 46.7041 21.2774 47 21.6131 47H22.781C22.9051 47 23 46.891 23 46.7664V41.8376C23 40.8254 22.2263 40.0078 21.2847 40.0078L21.292 40Z" fill="#267DE7"/>
<path d="M55.7566 39C52.8138 39 50.3795 41.2468 50.043 44.1294C50.0143 44.3534 50 44.5774 50 44.8085V49.9958C50 50.0897 50.0286 50.1692 50.0501 50.2559C50.1647 50.6821 50.5298 51 50.9881 51H57.1885C58.1909 51 59 50.1764 59 49.1722V42.28C59 40.4738 57.5465 39.0072 55.7566 39.0072V39Z" fill="#267DE7"/>
<path d="M66.2235 39C63.3434 39 61 41.2017 61 43.9077V47.4801C61 48.3182 61.7257 49 62.6177 49H66.3445C67.2592 49 68 48.304 68 47.4446V40.6761C68 39.7528 67.1987 39 66.2235 39Z" fill="#267DE7"/>
<path d="M75 47.9856V40.9424C75 40.4245 74.5503 40 74.0015 40C73.2012 40 72.4543 40.2302 71.8293 40.6115C70.7317 41.2878 70 42.446 70 43.777V48.0072C70 48.554 70.4726 49 71.0518 49H73.9253C74.5198 49 75 48.5468 75 47.9856Z" fill="#267DE7"/>
<path d="M77.7153 40.0078C76.7664 40.0078 76 40.8331 76 41.8376V46.7664C76 46.8988 76.1022 47 76.219 47H77.3869C77.7226 47 78 46.7041 78 46.3459V40.3115C78 40.1402 77.8686 40 77.708 40L77.7153 40.0078Z" fill="#267DE7"/>
<path d="M42.7919 56C42.4566 56 42.1712 56.2257 42.0571 56.5418C42.0214 56.6321 42 56.7299 42 56.8352V62.9902C42 64.6456 43.2771 66 44.8537 66C46.5874 66 48 64.5102 48 62.6817V56.3386C48 56.158 47.8573 56.0075 47.6861 56.0075H42.7919V56Z" fill="#267DE7"/>
<path d="M35.6478 56.1926C35.347 56.3637 35.1234 56.6418 35.0386 56.9699C35.0154 57.0626 35 57.1624 35 57.2623V63.6379C35 64.3867 35.6632 65 36.473 65C38.9717 65 41 63.1244 41 60.8138V57.248C41 57.141 40.9846 57.0555 40.9692 56.9699C40.892 56.6418 40.6684 56.3637 40.3753 56.1926C40.1748 56.0713 39.9357 56 39.6735 56H36.365C36.1028 56 35.8638 56.0713 35.6555 56.1926H35.6478Z" fill="#267DE7"/>
<path d="M28 56.0597V63.0084C28 63.5534 28.4497 64 28.9985 64C31.2012 64 33 62.2212 33 60.0261V56.3322C33 56.2792 32.9771 56.2414 32.9695 56.1884C32.8933 55.6812 32.4741 55.2876 31.9482 55.2876C31.9177 55.2876 31.8948 55.2876 31.8643 55.2876L29.0366 55C28.4649 55.0151 28 55.492 28 56.0673V56.0597Z" fill="#267DE7"/>
<path d="M26.1927 54.2653L25.5018 54C25.2182 54.0546 25 54.3278 25 54.6477V60.6957C25 60.8673 25.1309 61 25.2909 61C26.2364 61 27 60.1728 27 59.1661V54.8974C27 54.5775 26.76 54.32 26.4618 54.32C26.3745 54.32 26.28 54.3043 26.1927 54.2731V54.2653Z" fill="#267DE7"/>
<path d="M55.2081 56.0075H50.3139C50.1427 56.0075 50 56.158 50 56.3386V62.6817C50 64.5102 51.4126 66 53.1463 66C54.7158 66 56 64.6531 56 62.9902V56.8352C56 56.7299 55.9786 56.6321 55.9429 56.5418C55.8288 56.2257 55.5434 56 55.2081 56V56.0075Z" fill="#267DE7"/>
<path d="M58.6247 56.1926C58.3239 56.3637 58.108 56.6418 58.0308 56.9699C58.0077 57.0555 58 57.141 58 57.2338V60.8138C58 63.1244 60.0283 65 62.527 65C63.3368 65 64 64.3867 64 63.6379V57.2623C64 57.1624 63.9846 57.0626 63.9614 56.9699C63.8766 56.6418 63.653 56.3637 63.3522 56.1926C63.144 56.0713 62.9049 56 62.6427 56H59.3342C59.0797 56 58.8406 56.0713 58.6324 56.1926H58.6247Z" fill="#267DE7"/>
<path d="M67.1357 55.295C67.1357 55.295 67.0823 55.295 67.0518 55.295C66.5259 55.295 66.0991 55.6882 66.0305 56.195C66.0305 56.2403 66 56.2857 66 56.3387V60.0294C66 62.2151 67.7912 64 70.0015 64C70.5503 64 71 63.5538 71 63.0092V56.0664C71 55.4916 70.5351 55.0227 69.9634 55L67.1357 55.2874V55.295Z" fill="#267DE7"/>
<path d="M72.8073 54.2731C72.72 54.3043 72.6327 54.32 72.5382 54.32C72.24 54.32 72 54.5775 72 54.8974V59.1661C72 60.1806 72.7709 61 73.7091 61C73.8691 61 74 60.8595 74 60.6956V54.6477C74 54.3278 73.7818 54.0546 73.4982 54L72.8073 54.2653V54.2731Z" fill="#267DE7"/>
<defs>
<radialGradient id="paint0_radial_0_1" cx="0" cy="0" r="1" gradientUnits="userSpaceOnUse" gradientTransform="translate(49.5 49.5) rotate(90) scale(49.5)">
<stop offset="0.458333" stop-color="#004999" stop-opacity="0"/>
<stop offset="1" stop-color="#004999" stop-opacity="0.11"/>
</radialGradient>
</defs>
</svg>
