<svg width="99" height="99" viewBox="0 0 99 99" fill="none" xmlns="http://www.w3.org/2000/svg">
<circle cx="49.5" cy="49.5" r="49.5" fill="url(#paint0_radial_0_1)"/>
<path d="M34.7818 59.3402C35.0221 59.3326 35.2099 59.2335 35.3376 59.0507L43.6597 48.0738C44.3131 47.1292 45.3271 46.4665 46.5063 46.2532C46.7692 46.2075 47.0321 46.1846 47.295 46.1846C48.1963 46.1846 49.075 46.4665 49.8336 46.9997C50.8101 47.6929 51.4635 48.7289 51.6738 49.9172C51.8841 51.1056 51.6212 52.3092 50.9453 53.2994L43.7273 64.9238C43.5695 65.1524 43.547 65.3885 43.6221 65.5942C43.6672 65.7008 43.7723 65.8989 44.0202 65.9598C48.3239 66.9882 66.2224 47.9519 67.7622 45.2629C70.0455 41.2713 69.0916 36.2666 65.5465 33.6233C64.5175 32.8539 63.158 32.3435 61.6558 32.1302C62.3919 33.09 63.4134 34.1108 64.9907 35.2229C65.5014 35.581 65.6291 36.297 65.2686 36.815C64.9155 37.333 64.2095 37.4625 63.6988 37.0969C60.0335 34.5069 58.8918 32.1912 57.968 30.3325C57.0591 28.489 56.3982 27.1636 53.6191 25.7924C51.1105 24.5584 47.2874 24.6421 45.237 26.9274C44.2455 28.032 40.8881 34.7126 37.8838 42.6729C34.0157 52.9109 33.5425 57.9081 34.3086 59.0812C34.4513 59.2945 34.6691 59.3326 34.7818 59.3326V59.3402Z" fill="#267DE7"/>
<path d="M74.1361 47C72.5681 47 71.0675 47.6054 69.9346 48.7027C65.5531 52.9481 56.1747 63.3611 52.2283 66.4562C49.6549 68.4692 42.8124 71.7611 34.9271 66.4562C27.182 61.2437 29.6638 54.2338 30.3346 52.6949C30.426 52.4854 30.516 52.2791 30.5767 52.0587C31.542 48.5531 29.2103 47.0076 27.2669 47.0076H26C23.7909 47.0076 22 48.7984 22 51.0076V71C22 73.2091 23.7909 75 26 75H74C76.2091 75 78 73.2091 78 71V50.8714C78 48.7333 76.2667 47 74.1286 47H74.1361Z" fill="#267DE7"/>
<defs>
<radialGradient id="paint0_radial_0_1" cx="0" cy="0" r="1" gradientUnits="userSpaceOnUse" gradientTransform="translate(49.5 49.5) rotate(90) scale(49.5)">
<stop offset="0.458333" stop-color="#004999" stop-opacity="0"/>
<stop offset="1" stop-color="#004999" stop-opacity="0.11"/>
</radialGradient>
</defs>
</svg>
