<svg width="99" height="99" viewBox="0 0 99 99" fill="none" xmlns="http://www.w3.org/2000/svg">
<circle cx="49.5" cy="49.5" r="49.5" fill="url(#paint0_radial_0_1)"/>
<path fill-rule="evenodd" clip-rule="evenodd" d="M52.5183 26.2096C55.4628 24.7762 57.9423 23.9367 61.9393 24.9376V24.944C66.1623 25.9966 69.2424 29.5093 69.8494 33.8162C71.7865 47.5764 64.322 70.1314 56.412 74.18C55.0108 74.8968 53.8937 74.2446 53.8937 72.669V61.8662C53.8937 59.2962 51.6918 57.2428 49.0702 57.4947C46.7843 57.7142 45.1055 59.7676 45.1055 62.0599V72.7982C45.1055 74.1865 44.0659 74.8774 42.8067 74.2898C35.6715 70.9514 28.8398 52.4 28.8398 38.5751C28.8398 32.6281 30.8287 26.4292 36.6078 25.0603C40.5532 24.124 43.2587 24.9118 45.5381 26.1063C47.7142 27.2428 50.31 27.2815 52.5183 26.2096ZM37.6987 26.2613C36.1231 26.539 35.1739 28.87 36.5429 29.703C36.6888 29.7909 36.908 29.8606 37.1601 29.9408C37.834 30.1552 38.7434 30.4444 39.1193 31.356C40.0297 33.5773 42.0315 33.5127 43.155 33.1705C43.6793 33.013 44.081 32.8352 44.4291 32.681C45.4229 32.2411 45.9793 31.9947 47.7009 32.9703C49.7026 34.1003 52.8472 34.3844 54.9716 32.1632C55.8891 31.205 56.3611 31.2001 57.1758 31.1917C57.9149 31.1841 58.9362 31.1735 60.8283 30.4455C62.01 29.9935 62.1262 29.167 61.9002 28.3986C61.5644 27.2622 60.5829 26.4485 59.4335 26.1709C58.2713 25.8868 56.6505 25.6931 55.5786 26.4098C53.7641 27.6238 48.8761 29.4253 45.6798 28.0435C45.4686 27.952 45.2556 27.8579 45.0405 27.7629L45.0401 27.7628C42.887 26.8121 40.5229 25.7682 37.7051 26.2613H37.6987ZM33.3531 34.6427C33.5017 33.616 34.3992 32.7959 35.4388 32.7701C36.911 32.7313 37.7182 34.2746 36.8658 35.6371C36.4526 36.3021 35.0191 37.5936 33.9989 36.5733C33.3661 35.9405 33.2692 35.2303 33.3531 34.6427ZM37.5308 40.0925C37.7955 38.3878 39.1967 37.0189 40.9079 36.8317V36.8381C43.7103 36.5282 45.3181 39.3758 43.749 41.8941C43.0129 43.0693 40.4752 45.3616 38.6672 43.5536C37.5308 42.4171 37.3693 41.145 37.5308 40.0925Z" fill="#267DE7"/>
<defs>
<radialGradient id="paint0_radial_0_1" cx="0" cy="0" r="1" gradientUnits="userSpaceOnUse" gradientTransform="translate(49.5 49.5) rotate(90) scale(49.5)">
<stop offset="0.458333" stop-color="#004999" stop-opacity="0"/>
<stop offset="1" stop-color="#004999" stop-opacity="0.11"/>
</radialGradient>
</defs>
</svg>
